<?xml version="1.0" encoding="utf-8"?>
<!-- Generator: Adobe Illustrator 25.1.0, SVG Export Plug-In . SVG Version: 6.00 Build 0)  -->
<svg version="1.1" id="Layer_1" xmlns="http://www.w3.org/2000/svg" xmlns:xlink="http://www.w3.org/1999/xlink" x="0px" y="0px"
	 viewBox="0 0 128 143.6" style="enable-background:new 0 0 128 143.6;" xml:space="preserve">
<style type="text/css">
	.st0{fill-rule:evenodd;clip-rule:evenodd;fill:#F5F5F5;}
</style>
<g>
	<path class="st0" d="M102.6,18.9l2.5,3.3c0.7,0.9,0.5,2.1-0.4,2.8l-2.7,2c0.5,1.3,0.8,2.6,0.9,4.1l3,0.4c1.1,0.1,1.8,1.2,1.7,2.2
		l-0.6,4.1c-0.2,1.1-1.2,1.8-2.2,1.7l-3.3-0.5c-0.6,1.3-1.3,2.5-2.2,3.5l1.8,2.4c0.7,0.9,0.5,2.1-0.4,2.8l-3.3,2.5
		c-0.9,0.7-2.1,0.5-2.8-0.4l-2-2.7c-1.3,0.5-2.7,0.8-4.1,0.9l-0.4,3c-0.2,1.1-1.2,1.8-2.2,1.7L82,52.3c-1.1-0.2-1.8-1.2-1.7-2.2
		l0.4-3.3c-1.3-0.6-2.5-1.3-3.5-2.2l-2.4,1.8C73.9,47,72.7,46.8,72,46l-2.5-3.3c-0.7-0.9-0.5-2.1,0.4-2.8l2.7-2
		c-0.5-1.3-0.8-2.6-0.9-4.1l-3-0.4c-1.1-0.2-1.8-1.2-1.7-2.2l0.6-4.1c0.2-1.1,1.2-1.8,2.2-1.7l3.3,0.5c0.6-1.3,1.3-2.5,2.2-3.5
		L73.4,20c-0.7-0.9-0.5-2.1,0.4-2.8l3.3-2.5c0.9-0.7,2.1-0.5,2.8,0.4l2,2.7c1.3-0.5,2.7-0.8,4.1-0.9l0.4-3c0.2-1.1,1.2-1.8,2.2-1.7
		l4.1,0.6c1.1,0.1,1.8,1.1,1.7,2.2L94,18.3c1.3,0.6,2.5,1.3,3.5,2.2l2.4-1.9C100.7,17.8,102,18,102.6,18.9L102.6,18.9L102.6,18.9z
		 M58.3,25.8c-0.2,0-0.5,0-0.7,0.1C52,26.4,46.5,28.5,42,32c-5.3,4-9.2,10-10.8,18l-0.5,2.5L28.2,53c-2.5,0.4-4.6,1-6.6,1.8
		c-1.9,0.7-3.5,1.6-5,2.7c-1.2,0.8-2.2,1.8-3,2.8c-2.6,3.2-3.9,7.1-3.8,11.1c0,4.1,1.4,8.2,3.8,11.5c0.9,1.2,2,2.4,3.2,3.4l0,0
		l-2.7,7.1c-0.7-0.5-1.4-1-2-1.5c-1.7-1.4-3.2-3-4.4-4.7C4.3,82.6,2.5,77,2.5,71.4c0-5.7,1.7-11.3,5.5-15.8c1.2-1.5,2.7-2.8,4.3-4
		c1.9-1.4,4.1-2.6,6.6-3.5c1.7-0.7,3.6-1.2,5.5-1.7c2.2-8.7,6.9-15.5,12.9-20.1c5.6-4.4,12.4-6.9,19.4-7.6c2.1-0.2,4.3-0.2,6.4-0.1
		c-0.5,0.2-0.9,0.5-1.3,0.9l0,0c-1.9,1.5-3.3,3.7-3.7,6.3H58.3L58.3,25.8z M46.4,99.4H34.5l-1.7,5.6H22.2l12.7-33.9h11.5L59.1,105
		h-11L46.4,99.4L46.4,99.4z M44.2,92l-3.7-12.2L36.8,92H44.2L44.2,92z M62.3,71.1h17.4c3.8,0,6.6,0.9,8.5,2.7
		c1.9,1.8,2.8,4.4,2.8,7.7c0,3.4-1,6.1-3.1,8s-5.2,2.9-9.4,2.9h-5.7V105H62.3V71.1L62.3,71.1z M72.8,85.6h2.6c2,0,3.5-0.3,4.3-1.1
		c0.8-0.7,1.2-1.6,1.2-2.7s-0.4-2-1.1-2.7s-2.1-1.1-4-1.1h-3V85.6L72.8,85.6z M95.3,71.1h10.5V105H95.3V71.1L95.3,71.1z M114.6,43.7
		c1.1,0.8,2.1,1.8,3.1,2.8c1.1,1.2,2.1,2.5,3,3.9c3.2,4.9,4.8,11.5,4.8,17.9c-0.1,6.3-1.8,12.6-5.2,17.2c-0.8,1.1-1.8,2.2-2.8,3.1
		V74.2c0.4-1.9,0.7-3.8,0.7-5.8c0.1-5.1-1.2-10.2-3.6-13.9c-0.7-1.1-1.4-2-2.2-2.9c-0.7-0.7-1.3-1.3-2.1-1.9
		c0.1-0.3,0.1-0.6,0.2-0.9c0.1-0.6,0.1-1.2,0.1-1.9c0.8-0.3,1.6-0.8,2.3-1.3l0,0C113.4,45.1,114,44.4,114.6,43.7L114.6,43.7z
		 M88.4,24.4c4.4,0.6,7.6,4.7,7,9.2s-4.7,7.6-9.2,7c-4.4-0.6-7.6-4.7-7-9.2S84,23.8,88.4,24.4L88.4,24.4L88.4,24.4z"/>
</g>
</svg>
